<svg width="726" height="75" viewBox="0 0 726 75" fill="none" xmlns="http://www.w3.org/2000/svg">
<path fill-rule="evenodd" clip-rule="evenodd" d="M723.793 61.3452C725.892 54.2879 724.497 45.5045 725.853 38.2677C726.446 35.1005 725.184 34.0776 723.175 32.2843C716.453 26.2821 722.185 13.5777 716.072 6.95572C712.607 3.20235 706.369 0.648065 700.621 0.641614C698.464 0.639193 696.239 0.664115 694.082 0.665502V0.665502C691.916 0.666896 689.711 0.68905 687.545 0.691224V0.691224C685.404 0.693374 683.21 0.715583 681.069 0.71697V0.71697C678.918 0.718363 676.72 0.742619 674.569 0.743854V0.743854C672.406 0.745095 670.211 0.76286 668.048 0.76739V0.76739C665.886 0.771918 663.699 0.788919 661.538 0.794237V0.794237C659.387 0.799529 657.203 0.816417 655.052 0.817685V0.817685C652.891 0.818959 650.7 0.842344 648.538 0.844576V0.844576C646.377 0.846809 644.193 0.869236 642.031 0.871461V0.871461C639.87 0.873686 637.69 0.896116 635.528 0.898291V0.898291C633.366 0.900467 631.166 0.921559 629.004 0.924011V0.924011C626.871 0.92643 624.752 0.958732 622.618 0.949918C622.594 0.949819 622.57 0.949763 622.546 0.949751C620.397 0.948695 618.173 0.975688 616.024 0.976636V0.976636C613.86 0.97759 611.671 0.995302 609.507 1.00018V1.00018C607.348 1.00505 605.155 1.02208 602.996 1.02701V1.02701C600.844 1.03193 598.658 1.04906 596.505 1.05047V1.05047C594.344 1.05188 592.157 1.07513 589.995 1.07736V1.07736C587.833 1.07959 585.653 1.10183 583.492 1.10425V1.10425C581.332 1.10666 579.148 1.12956 576.989 1.13107V1.13107C574.821 1.13259 572.622 1.15407 570.455 1.1568V1.1568C568.319 1.15949 566.124 1.18142 563.988 1.18254V1.18254C561.839 1.18365 559.632 1.20837 557.483 1.20942V1.20942C555.32 1.21047 553.117 1.22734 550.954 1.23293V1.23293C548.806 1.23847 546.623 1.25547 544.474 1.25637V1.25637C542.31 1.25727 540.121 1.28065 537.957 1.28326V1.28326C535.797 1.28587 533.611 1.30811 531.451 1.31014V1.31014C529.289 1.31218 527.108 1.3348 524.946 1.33697V1.33697C522.785 1.33915 520.584 1.36024 518.422 1.36269V1.36269C516.289 1.36511 514.17 1.39741 512.036 1.3886C512.012 1.3885 511.988 1.38845 511.964 1.38843C509.815 1.38739 507.59 1.41419 505.441 1.41532V1.41532C503.279 1.41645 501.091 1.43441 498.929 1.43885V1.43885C496.767 1.4433 494.58 1.46028 492.418 1.46571V1.46571C490.268 1.4711 488.075 1.48799 485.926 1.48915V1.48915C483.764 1.49032 481.575 1.51381 479.413 1.51604V1.51604C477.252 1.51827 475.071 1.54051 472.91 1.54293V1.54293C470.75 1.54535 468.566 1.56824 466.407 1.56975V1.56975C464.24 1.57126 462.04 1.59274 459.873 1.59548V1.59548C457.737 1.59817 455.542 1.62011 453.406 1.62122V1.62122C451.257 1.62233 449.05 1.64705 446.901 1.6481V1.6481C444.738 1.64916 442.545 1.66711 440.382 1.67164V1.67164C438.221 1.67617 436.033 1.69317 433.872 1.69849V1.69849C431.721 1.70378 429.538 1.72076 427.387 1.72193V1.72193C425.225 1.72312 423.03 1.74651 420.867 1.74883V1.74883C418.705 1.75114 416.526 1.77348 414.364 1.77571V1.77571C412.203 1.77794 410.023 1.80018 407.861 1.80254V1.80254C405.701 1.80491 403.498 1.82619 401.338 1.82826V1.82826C399.203 1.8303 397.085 1.86261 394.949 1.85415C394.926 1.85406 394.903 1.85401 394.88 1.854C392.731 1.85295 390.508 1.87994 388.359 1.88088V1.88088C386.195 1.88184 383.998 1.89878 381.834 1.90439V1.90439C379.685 1.90997 377.494 1.92667 375.344 1.92783V1.92783C373.182 1.929 370.993 1.95249 368.831 1.95472V1.95472C366.67 1.95695 364.49 1.97919 362.328 1.98161V1.98161C360.168 1.98403 357.984 2.00693 355.825 2.00843V2.00843C353.658 2.00994 351.458 2.03142 349.291 2.03416V2.03416C347.155 2.03686 344.961 2.05897 342.826 2.0599V2.0599C340.674 2.06083 338.472 2.08555 336.321 2.08678V2.08678C334.158 2.08803 331.963 2.10579 329.8 2.11032V2.11032C327.639 2.11485 325.452 2.13185 323.29 2.13717V2.13717C321.139 2.14246 318.956 2.15944 316.806 2.16062V2.16062C314.643 2.1618 312.448 2.18519 310.285 2.18751V2.18751C308.123 2.18983 305.944 2.21216 303.783 2.21439V2.21439C301.621 2.21662 299.441 2.23886 297.279 2.24122V2.24122C295.12 2.24359 292.916 2.26487 290.757 2.26694V2.26694C288.621 2.26899 286.503 2.3013 284.367 2.29284C284.344 2.29274 284.321 2.29269 284.298 2.29268C282.149 2.29163 279.926 2.31862 277.777 2.31957V2.31957C275.613 2.32052 273.416 2.33746 271.252 2.34313V2.34313C269.103 2.34876 266.912 2.36547 264.762 2.36657V2.36657C262.6 2.36768 260.411 2.39117 258.249 2.39341V2.39341C256.088 2.39564 253.909 2.41806 251.747 2.42029V2.42029C249.586 2.42252 247.406 2.44476 245.244 2.44718V2.44718C243.084 2.44959 240.9 2.47249 238.741 2.474V2.474C236.574 2.47552 234.375 2.497 232.207 2.49973V2.49973C230.072 2.50242 227.877 2.52444 225.741 2.52547V2.52547C223.591 2.5265 221.379 2.55113 219.229 2.55235V2.55235C217.067 2.55358 214.87 2.57053 212.708 2.57585V2.57585C210.557 2.58114 208.377 2.59836 206.226 2.5993V2.5993C204.06 2.60024 201.868 2.62339 199.702 2.6262V2.6262C197.544 2.629 195.362 2.65109 193.203 2.65307V2.65307C191.041 2.65506 188.861 2.67773 186.699 2.6799V2.6799C184.537 2.68208 182.337 2.70317 180.175 2.70562V2.70562C178.041 2.70804 175.922 2.74034 173.789 2.73153C173.765 2.73143 173.741 2.73138 173.717 2.73136C171.567 2.7303 169.344 2.7573 167.195 2.75825V2.75825C165.031 2.75921 162.841 2.77691 160.677 2.78179V2.78179C158.518 2.78666 156.326 2.80369 154.167 2.80863V2.80863C152.014 2.81354 149.828 2.83068 147.676 2.83208V2.83208C145.514 2.83349 143.327 2.85674 141.166 2.85897V2.85897C139.004 2.8612 136.824 2.88344 134.662 2.88586V2.88586C132.503 2.88828 130.319 2.91117 128.159 2.91268V2.91268C125.992 2.9142 123.793 2.93568 121.626 2.93841V2.93841C119.49 2.9411 117.292 2.96281 115.156 2.96415V2.96415C113.01 2.9655 110.8 2.99045 108.654 2.99103V2.99103C106.488 2.99161 104.288 3.00871 102.123 3.0146V3.0146C99.9741 3.02044 97.793 3.0372 95.6444 3.03803V3.03803C93.4805 3.03888 91.2911 3.06226 89.1272 3.06488V3.06488C86.9678 3.06748 84.7812 3.08972 82.6217 3.09175V3.09175C80.46 3.09379 78.2785 3.11641 76.1169 3.11864V3.11864C73.9552 3.12087 71.775 3.14311 69.6133 3.14547V3.14547C67.4539 3.14784 65.2495 3.16959 63.0901 3.17118V3.17118C60.9487 3.17277 58.7486 3.19537 56.6072 3.19693V3.19693C54.4581 3.19851 52.2601 3.22287 50.111 3.22382V3.22382C47.947 3.22477 45.7506 3.24171 43.5865 3.24732V3.24732C41.4369 3.2529 39.246 3.2696 37.0963 3.27076V3.27076C34.9346 3.27193 32.7454 3.29543 30.5837 3.29766V3.29766C28.4221 3.29989 26.2419 3.32212 24.0802 3.32454V3.32454C21.9207 3.32696 19.735 3.34967 17.5755 3.35137V3.35137C15.4104 3.35307 13.2783 3.38266 11.1132 3.379C8.19738 3.37408 5.4079 4.02476 3.17186 5.50845C-0.569086 7.99068 0.390932 13.3904 4.57887 15.0082C6.54479 15.7676 8.64923 16.4157 10.3568 17.3816C12.9219 18.8326 8.06254 23.8715 10.9529 24.4465C12.0259 24.66 15.428 23.0283 12.3397 24.4806C9.65726 25.7421 8.94346 29.7352 11.8592 30.2694V30.2694C14.0712 30.6746 16.4572 31.4369 17.6549 33.3402C19.5285 36.3178 20.7608 36.4039 23.5479 43.0189C24.5169 45.3188 21.703 48.3544 19.4971 49.5218V49.5218C18.0398 50.293 17.7711 52.1873 17.8949 53.8314C17.9404 54.4366 17.8903 55.033 17.7582 55.6107C17.3262 57.5 18.1651 58.8372 19.9996 58.2121V58.2121C21.2715 57.7787 20.4069 59.4629 19.6801 60.5931C18.2765 62.776 20.4504 65.4064 22.119 68.1767C23.712 70.8215 26.4344 74.454 29.4675 73.8766V73.8766C30.391 73.7007 31.1441 73.6287 32.0745 73.7629C32.762 73.8621 33.3683 73.9326 33.927 73.9633C36.0786 74.0814 38.6748 73.9074 40.8292 73.9515V73.9515C42.9908 73.9957 45.1781 73.8821 47.3398 73.9248V73.9248C49.4985 73.9673 51.6833 73.8551 53.842 73.8978V73.8978C55.9989 73.9406 58.1965 73.8274 60.3534 73.8721V73.8721C62.5061 73.9168 64.6966 73.8092 66.8492 73.853V73.853C69.0072 73.8969 71.1984 73.7832 73.3564 73.8262V73.8262C75.5144 73.8693 77.7028 73.7569 79.8608 73.7994V73.7994C82.0152 73.8418 84.208 73.7283 86.3623 73.7724V73.7724C88.5239 73.8166 90.7113 73.703 92.8729 73.7457V73.7457C95.0316 73.7883 97.2183 73.6765 99.3769 73.7189V73.7189C101.531 73.7612 103.724 73.6478 105.878 73.6918V73.6918C108.04 73.736 110.227 73.6225 112.389 73.6651V73.6651C114.547 73.7076 116.738 73.5955 118.897 73.6394V73.6394C121.046 73.6832 123.238 73.5764 125.387 73.6202V73.6202C127.542 73.6641 129.741 73.5493 131.895 73.5933V73.5933C134.057 73.6376 136.244 73.524 138.406 73.5666V73.5666C140.565 73.6092 142.751 73.4973 144.91 73.5398V73.5398C147.064 73.5821 149.257 73.4686 151.411 73.5128V73.5128C153.573 73.557 155.76 73.4436 157.922 73.4861V73.4861C160.08 73.5285 162.265 73.4161 164.423 73.4591V73.4591C166.581 73.5022 168.775 73.39 170.934 73.4336V73.4336C173.079 73.4769 175.275 73.3686 177.421 73.4141V73.4141C179.585 73.46 181.777 73.3453 183.941 73.3876V73.3876C186.099 73.4299 188.285 73.3183 190.443 73.3607V73.3607C192.598 73.4031 194.79 73.2896 196.944 73.3337V73.3337C199.106 73.3779 201.293 73.2643 203.455 73.307V73.307C205.614 73.3496 207.8 73.2378 209.959 73.2802V73.2802C212.113 73.3225 214.306 73.2091 216.46 73.2531V73.2531C218.622 73.2973 220.809 73.1838 222.97 73.2264V73.2264C225.129 73.2689 227.32 73.1568 229.479 73.2007V73.2007C231.628 73.2445 233.82 73.1378 235.969 73.1815V73.1815C238.123 73.2254 240.323 73.1106 242.477 73.1547V73.1547C244.639 73.1989 246.826 73.0853 248.988 73.1279V73.1279C251.147 73.1705 253.333 73.0586 255.492 73.1011V73.1011C257.646 73.1434 259.839 73.0299 261.993 73.0741V73.0741C264.155 73.1183 266.342 73.0049 268.504 73.0474V73.0474C270.662 73.0898 272.847 72.9774 275.005 73.0205V73.0205C277.163 73.0635 279.362 72.9524 281.52 72.995V72.995C283.66 73.0372 285.859 72.9232 287.998 72.9719V72.9719C290.162 73.0211 292.359 72.9065 294.523 72.9489V72.9489C296.681 72.9912 298.866 72.8796 301.025 72.922V72.922C303.18 72.9644 305.372 72.8509 307.526 72.895V72.895C309.688 72.9392 311.876 72.8258 314.037 72.8683V72.8683C316.195 72.9107 318.38 72.7983 320.538 72.8414V72.8414C322.696 72.8845 324.884 72.7721 327.042 72.8146V72.8146C329.197 72.857 331.389 72.7435 333.544 72.7876V72.7876C335.705 72.8318 337.899 72.7185 340.061 72.7621V72.7621C342.211 72.8055 344.402 72.6992 346.551 72.7429V72.7429C348.706 72.7866 350.905 72.6719 353.059 72.716V72.716C355.221 72.7602 357.408 72.6467 359.57 72.6893V72.6893C361.728 72.7318 363.915 72.62 366.074 72.6624V72.6624C368.228 72.7047 370.421 72.5913 372.575 72.6354V72.6354C374.737 72.6797 376.924 72.5662 379.086 72.6087V72.6087C381.244 72.6511 383.428 72.5387 385.586 72.5818V72.5818C387.745 72.6248 389.931 72.512 392.089 72.5549V72.5549C394.246 72.5978 396.444 72.4844 398.601 72.5292V72.5292C400.754 72.5739 402.944 72.4663 405.097 72.5101V72.5101C407.255 72.5539 409.448 72.4407 411.606 72.4833V72.4833C413.761 72.526 415.95 72.4127 418.106 72.4563V72.4563C420.266 72.5001 422.458 72.3869 424.618 72.4296V72.4296C426.776 72.4722 428.962 72.3596 431.12 72.4027V72.4027C433.278 72.4458 435.466 72.3334 437.624 72.3759V72.3759C439.778 72.4184 441.971 72.3048 444.125 72.3489V72.3489C446.287 72.3931 448.486 72.2808 450.647 72.3235V72.3235C452.791 72.3658 454.985 72.2538 457.129 72.3006V72.3006C459.283 72.3477 461.487 72.2331 463.641 72.2772V72.2772C465.803 72.3215 467.991 72.2081 470.152 72.2506V72.2506C472.31 72.293 474.495 72.1806 476.653 72.2236V72.2236C478.811 72.2667 480.999 72.1543 483.157 72.1968V72.1968C485.312 72.2392 487.504 72.1257 489.659 72.1698V72.1698C491.82 72.2141 494.008 72.1005 496.169 72.1431V72.1431C498.328 72.1857 500.513 72.0734 502.671 72.1162V72.1162C504.828 72.159 507.026 72.0458 509.183 72.0905V72.0905C511.335 72.1352 513.526 72.0276 515.679 72.0714V72.0714C517.837 72.1153 520.028 72.0016 522.186 72.0446V72.0446C524.344 72.0877 526.53 71.9749 528.688 72.0178V72.0178C530.845 72.0606 533.04 71.9477 535.197 71.9908V71.9908C537.355 72.034 539.543 71.9209 541.701 71.964V71.964C543.859 72.0071 546.048 71.8947 548.206 71.9373V71.9373C550.36 71.9797 552.553 71.8662 554.707 71.9102V71.9102C556.869 71.9544 559.068 71.8422 561.23 71.8848V71.8848C563.373 71.9271 565.567 71.8149 567.71 71.8619V71.8619C569.865 71.9092 572.067 71.7953 574.223 71.8386V71.8386C576.381 71.882 578.572 71.7688 580.73 71.8118V71.8118C582.888 71.8549 585.075 71.7419 587.233 71.7849V71.7849C589.392 71.828 591.581 71.7157 593.739 71.7581V71.7581C595.894 71.8005 598.086 71.687 600.241 71.7311V71.7311C602.402 71.7754 604.59 71.662 606.752 71.7045V71.7045C608.91 71.7469 611.094 71.6345 613.252 71.6775V71.6775C615.41 71.7206 617.608 71.6091 619.766 71.652V71.652C621.908 71.6946 624.111 71.5816 626.253 71.6291V71.6291C628.41 71.6769 630.61 71.5628 632.768 71.6059V71.6059C634.926 71.649 637.114 71.5366 639.272 71.5791V71.5791C641.426 71.6216 643.619 71.508 645.774 71.5521V71.5521C647.935 71.5963 650.123 71.4827 652.285 71.5253V71.5253C654.443 71.5679 656.63 71.456 658.788 71.4985V71.4985C660.943 71.5409 663.135 71.4275 665.289 71.4715V71.4715C667.451 71.5157 669.638 71.4022 671.8 71.4448V71.4448C673.959 71.4873 676.149 71.3752 678.308 71.4191V71.4191C680.457 71.4629 682.65 71.3561 684.799 71.3999V71.3999C686.953 71.4438 689.153 71.329 691.307 71.373V71.373C693.469 71.4173 695.656 71.3037 697.818 71.3463V71.3463C699.976 71.3889 702.164 71.2774 704.323 71.3195V71.3195C706.475 71.3614 708.258 71.1545 710.407 71.2762C710.587 71.2864 710.762 71.2925 710.933 71.2941C712.753 71.3116 714.992 71.1284 716.808 71.2476V71.2476C720.523 71.4916 722.058 67.5102 723.04 63.9195C723.283 63.0295 723.547 62.1733 723.793 61.3452Z" fill="url(#paint0_linear_804_5493)" fill-opacity="0.8"/>
<defs>
<linearGradient id="paint0_linear_804_5493" x1="726" y1="36.1865" x2="403.13" y2="407.946" gradientUnits="userSpaceOnUse">
<stop stop-color="#00C4B8"/>
<stop offset="1" stop-color="#0ACE88"/>
</linearGradient>
</defs>
</svg>
