<svg width="209" height="272" viewBox="0 0 209 272" fill="none" xmlns="http://www.w3.org/2000/svg">
<path d="M190.86 270.953L199.022 271.173L199.241 263.011L191.079 262.791L190.86 270.953ZM147.89 197.252C148.501 197.54 149.111 197.828 149.72 198.116L150.576 196.309C149.966 196.02 149.355 195.731 148.742 195.443L147.89 197.252ZM153.369 199.856C154.588 200.442 155.801 201.029 157.006 201.618L157.884 199.821C156.675 199.23 155.458 198.641 154.235 198.053L153.369 199.856ZM160.628 203.407C161.839 204.012 163.041 204.62 164.23 205.229L165.143 203.45C163.946 202.836 162.739 202.226 161.521 201.618L160.628 203.407ZM167.81 207.092C169.009 207.726 170.194 208.363 171.361 209.003L172.322 207.249C171.145 206.604 169.952 205.962 168.744 205.324L167.81 207.092ZM174.879 210.97C176.06 211.644 177.219 212.322 178.356 213.003L179.384 211.288C178.235 210.599 177.063 209.914 175.871 209.233L174.879 210.97ZM181.78 215.113C182.93 215.843 184.051 216.576 185.14 217.314L186.262 215.658C185.155 214.908 184.017 214.164 182.852 213.425L181.78 215.113ZM188.417 219.62C189.515 220.424 190.572 221.233 191.587 222.048L192.839 220.489C191.8 219.654 190.719 218.827 189.599 218.007L188.417 219.62ZM194.638 224.638C195.653 225.551 196.61 226.471 197.505 227.398L198.944 226.009C198.014 225.045 197.023 224.093 195.976 223.151L194.638 224.638ZM200.12 230.349C200.974 231.407 201.742 232.474 202.42 233.549L204.112 232.482C203.389 231.335 202.574 230.206 201.677 229.093L200.12 230.349ZM204.256 236.975C204.789 238.183 205.205 239.402 205.498 240.633L207.443 240.171C207.121 238.813 206.664 237.479 206.086 236.168L204.256 236.975ZM206.002 244.43C206.038 245.686 205.944 246.962 205.713 248.26L207.682 248.611C207.937 247.181 208.041 245.768 208.001 244.373L206.002 244.43ZM204.689 251.966C204.255 253.13 203.71 254.314 203.044 255.519L204.795 256.486C205.505 255.201 206.093 253.927 206.563 252.665L204.689 251.966ZM200.954 258.821C200.227 259.841 199.415 260.874 198.515 261.922L200.032 263.226C200.968 262.135 201.817 261.054 202.582 259.982L200.954 258.821ZM195.817 264.836C195.35 265.307 194.865 265.78 194.363 266.256L195.738 267.708C196.255 267.218 196.755 266.73 197.237 266.244L195.817 264.836Z" fill="#08CB92"/>
<path d="M60.173 60.8652C37.0875 96.2877 44.1151 123.137 62.1834 143.482" stroke="#08CB92" stroke-width="2" stroke-dasharray="4 4"/>
<circle cx="60.176" cy="60.1741" r="31.8167" fill="url(#paint0_linear_810_10901)" fill-opacity="0.2"/>
<circle cx="60.175" cy="60.175" r="60.175" fill="url(#paint1_linear_810_10901)" fill-opacity="0.05"/>
<circle cx="60.1766" cy="60.1746" r="12.45" fill="url(#paint2_linear_810_10901)" fill-opacity="0.2"/>
<circle r="2.76667" transform="matrix(1.19249e-08 -1 -1 -1.19249e-08 60.1747 60.8661)" fill="#D9D9D9"/>
<circle r="2.76667" transform="matrix(1.19249e-08 -1 -1 -1.19249e-08 60.1747 60.8661)" fill="url(#paint3_linear_810_10901)"/>
<defs>
<linearGradient id="paint0_linear_810_10901" x1="91.9927" y1="59.0401" x2="26.9298" y2="65.6139" gradientUnits="userSpaceOnUse">
<stop stop-color="#00C4B8"/>
<stop offset="1" stop-color="#0ACE88"/>
</linearGradient>
<linearGradient id="paint1_linear_810_10901" x1="120.35" y1="58.0302" x2="-2.70381" y2="70.4633" gradientUnits="userSpaceOnUse">
<stop stop-color="#00C4B8"/>
<stop offset="1" stop-color="#0ACE88"/>
</linearGradient>
<linearGradient id="paint2_linear_810_10901" x1="72.6266" y1="59.7309" x2="47.1672" y2="62.3032" gradientUnits="userSpaceOnUse">
<stop stop-color="#00C4B8"/>
<stop offset="1" stop-color="#0ACE88"/>
</linearGradient>
<linearGradient id="paint3_linear_810_10901" x1="5.53333" y1="2.66806" x2="-0.124313" y2="3.23969" gradientUnits="userSpaceOnUse">
<stop stop-color="#00C4B8"/>
<stop offset="1" stop-color="#0ACE88"/>
</linearGradient>
</defs>
</svg>
