<svg width="150" height="294" viewBox="0 0 150 294" fill="none" xmlns="http://www.w3.org/2000/svg">
<path d="M140.984 293.608L137.307 286.318L144.597 282.641L148.274 289.931L140.984 293.608ZM116.767 183.759C117.281 184.202 117.795 184.654 118.309 185.114L116.975 186.605C116.47 186.153 115.965 185.709 115.46 185.272L116.767 183.759ZM121.327 187.914C122.304 188.853 123.277 189.823 124.242 190.823L122.802 192.211C121.855 191.23 120.9 190.278 119.941 189.355L121.327 187.914ZM127.046 193.845C127.95 194.859 128.844 195.902 129.724 196.973L128.179 198.243C127.316 197.193 126.44 196.171 125.553 195.176L127.046 193.845ZM132.275 200.215C133.095 201.303 133.899 202.419 134.684 203.562L133.036 204.695C132.267 203.576 131.48 202.484 130.678 201.418L132.275 200.215ZM136.942 207.012C137.663 208.171 138.364 209.355 139.042 210.567L137.297 211.544C136.635 210.36 135.949 209.202 135.244 208.069L136.942 207.012ZM140.975 214.218C141.583 215.438 142.168 216.682 142.727 217.952L140.897 218.758C140.351 217.518 139.78 216.302 139.185 215.111L140.975 214.218ZM144.297 221.77C144.784 223.044 145.245 224.341 145.677 225.663L143.777 226.285C143.355 224.995 142.905 223.728 142.429 222.485L144.297 221.77ZM146.864 229.621C147.224 230.936 147.554 232.274 147.855 233.634L145.902 234.065C145.608 232.737 145.286 231.432 144.935 230.148L146.864 229.621ZM148.646 237.682C148.874 239.022 149.073 240.383 149.241 241.765L147.255 242.006C147.091 240.656 146.897 239.327 146.674 238.018L148.646 237.682ZM149.642 245.87C149.743 247.224 149.814 248.597 149.854 249.989L147.855 250.047C147.816 248.685 147.746 247.342 147.648 246.019L149.642 245.87ZM149.882 254.112C149.862 255.468 149.813 256.841 149.733 258.232L147.736 258.117C147.814 256.755 147.863 255.41 147.883 254.082L149.882 254.112ZM149.413 262.34C149.281 263.688 149.121 265.052 148.931 266.432L146.95 266.16C147.136 264.805 147.293 263.467 147.423 262.145L149.413 262.34ZM148.295 270.503C148.061 271.837 147.8 273.186 147.511 274.549L145.555 274.135C145.839 272.794 146.095 271.469 146.325 270.157L148.295 270.503ZM146.591 278.561C146.268 279.87 145.919 281.192 145.544 282.527L143.619 281.987C143.988 280.672 144.331 279.37 144.649 278.081L146.591 278.561ZM144.375 286.461C144.17 287.117 143.958 287.776 143.74 288.438L141.841 287.812C142.056 287.159 142.264 286.51 142.467 285.863L144.375 286.461Z" fill="#08CB92"/>
<path d="M60.4821 60.1738C57.1892 75.2725 56.3489 88.0213 57.3689 98.9895" stroke="#08CB92" stroke-width="2" stroke-dasharray="4 4"/>
<circle cx="61.1716" cy="60.1741" r="31.8167" transform="rotate(90 61.1716 60.1741)" fill="url(#paint0_linear_810_10911)" fill-opacity="0.2"/>
<circle cx="61.1727" cy="60.175" r="60.175" transform="rotate(90 61.1727 60.175)" fill="url(#paint1_linear_810_10911)" fill-opacity="0.05"/>
<circle cx="61.1711" cy="60.1746" r="12.45" transform="rotate(90 61.1711 60.1746)" fill="url(#paint2_linear_810_10911)" fill-opacity="0.2"/>
<circle r="2.76667" transform="matrix(1 5.56363e-08 5.56363e-08 -1 60.4815 60.1747)" fill="#D9D9D9"/>
<circle r="2.76667" transform="matrix(1 5.56363e-08 5.56363e-08 -1 60.4815 60.1747)" fill="url(#paint3_linear_810_10911)"/>
<defs>
<linearGradient id="paint0_linear_810_10911" x1="92.9883" y1="59.0401" x2="27.9253" y2="65.6139" gradientUnits="userSpaceOnUse">
<stop stop-color="#00C4B8"/>
<stop offset="1" stop-color="#0ACE88"/>
</linearGradient>
<linearGradient id="paint1_linear_810_10911" x1="121.348" y1="58.0302" x2="-1.70616" y2="70.4633" gradientUnits="userSpaceOnUse">
<stop stop-color="#00C4B8"/>
<stop offset="1" stop-color="#0ACE88"/>
</linearGradient>
<linearGradient id="paint2_linear_810_10911" x1="73.6211" y1="59.7309" x2="48.1617" y2="62.3032" gradientUnits="userSpaceOnUse">
<stop stop-color="#00C4B8"/>
<stop offset="1" stop-color="#0ACE88"/>
</linearGradient>
<linearGradient id="paint3_linear_810_10911" x1="5.53333" y1="2.66806" x2="-0.124313" y2="3.23969" gradientUnits="userSpaceOnUse">
<stop stop-color="#00C4B8"/>
<stop offset="1" stop-color="#0ACE88"/>
</linearGradient>
</defs>
</svg>
