<svg width="250" height="224" viewBox="0 0 250 224" fill="none" xmlns="http://www.w3.org/2000/svg">
<path d="M190.035 138.482C223.72 225.731 173.969 238.833 115.627 204.519" stroke="#08CB92" stroke-width="2" stroke-dasharray="4 4"/>
<path d="M8.22807 0.421436L1.16191 4.51241L5.25287 11.5786L12.319 7.4876L8.22807 0.421436ZM5.77424 5.74234C5.59612 6.41029 5.42193 7.07651 5.25169 7.74101L7.18913 8.23735C7.35772 7.57926 7.53025 6.91937 7.70671 6.25766L5.77424 5.74234ZM4.27142 11.7357C3.95602 13.0811 3.6574 14.4196 3.37578 15.7515L5.33251 16.1652C5.61104 14.848 5.90648 13.5237 6.21863 12.1922L4.27142 11.7357ZM2.57081 19.7879C2.31644 21.1467 2.08037 22.4986 1.86286 23.8441L3.83723 24.1633C4.05204 22.8345 4.28526 21.4988 4.53666 20.1559L2.57081 19.7879ZM1.25849 27.9187C1.07381 29.2889 0.909024 30.6525 0.764411 32.0098L2.75315 32.2217C2.89576 30.8832 3.05831 29.5381 3.24057 28.1858L1.25849 27.9187ZM0.38736 36.115C0.281319 37.4933 0.196767 38.8652 0.134 40.2312L2.13189 40.323C2.1937 38.978 2.27698 37.6266 2.38147 36.2684L0.38736 36.115ZM0.0107566 44.3546C-0.00803843 45.736 -0.00384454 47.1114 0.0236531 48.4812L2.02325 48.4411C1.99621 47.0941 1.99208 45.7411 2.01057 44.3819L0.0107566 44.3546ZM0.178135 52.606C0.253987 53.9839 0.354131 55.3563 0.478892 56.7236L2.47062 56.5419C2.34806 55.1988 2.24966 53.8503 2.17511 52.496L0.178135 52.606ZM0.929681 60.8284C1.10545 62.1951 1.30651 63.557 1.53318 64.9142L3.50586 64.5847C3.28334 63.2524 3.08594 61.9154 2.91334 60.5733L0.929681 60.8284ZM2.29086 68.9748C2.56889 70.3221 2.8728 71.6651 3.20291 73.0041L5.14477 72.5254C4.82077 71.2111 4.52248 69.893 4.24959 68.5706L2.29086 68.9748ZM4.26822 76.9959C4.64748 78.3155 5.05277 79.6316 5.48439 80.9444L7.38433 80.3197C6.96056 79.0308 6.56269 77.7388 6.19042 76.4435L4.26822 76.9959ZM6.84765 84.8439C7.32358 86.1282 7.82522 87.4097 8.35286 88.6886L10.2017 87.9259C9.68325 86.6692 9.19047 85.4104 8.72303 84.1489L6.84765 84.8439ZM9.99487 92.4759C10.5606 93.7203 11.1514 94.9625 11.7675 96.2028L13.5587 95.3131C12.9527 94.093 12.3717 92.8715 11.8155 91.6482L9.99487 92.4759ZM13.6642 99.8671C14.3113 101.068 14.9825 102.268 15.678 103.467L17.4079 102.463C16.7228 101.283 16.062 100.101 15.425 98.9187L13.6642 99.8671ZM17.8019 107.002C18.5212 108.16 19.2636 109.317 20.0291 110.473L21.6966 109.369C20.9416 108.228 20.2097 107.088 19.5006 105.947L17.8019 107.002ZM22.3517 113.878C23.1332 114.99 23.9363 116.103 24.7614 117.215L26.3677 116.023C25.5528 114.925 24.7598 113.826 23.9884 112.728L22.3517 113.878ZM27.2535 120.489C28.0893 121.56 28.9455 122.63 29.8224 123.701L31.3699 122.435C30.5027 121.375 29.6561 120.316 28.8301 119.258L27.2535 120.489ZM32.4629 126.855C32.9095 127.377 33.361 127.899 33.8175 128.421L35.3231 127.104C34.8712 126.587 34.4243 126.071 33.9823 125.554L32.4629 126.855Z" fill="#08CB92"/>
<circle r="31.8167" transform="matrix(4.37114e-08 1 1 -4.37114e-08 189.344 138.483)" fill="url(#paint0_linear_810_10925)" fill-opacity="0.2"/>
<circle r="60.175" transform="matrix(4.37114e-08 1 1 -4.37114e-08 189.343 138.484)" fill="url(#paint1_linear_810_10925)" fill-opacity="0.05"/>
<circle r="12.45" transform="matrix(4.37114e-08 1 1 -4.37114e-08 189.345 138.483)" fill="url(#paint2_linear_810_10925)" fill-opacity="0.2"/>
<circle cx="190.034" cy="138.483" r="2.76667" transform="rotate(180 190.034 138.483)" fill="#D9D9D9"/>
<circle cx="190.034" cy="138.483" r="2.76667" transform="rotate(180 190.034 138.483)" fill="url(#paint3_linear_810_10925)"/>
<defs>
<linearGradient id="paint0_linear_810_10925" x1="63.6333" y1="30.6826" x2="-1.4296" y2="37.2564" gradientUnits="userSpaceOnUse">
<stop stop-color="#00C4B8"/>
<stop offset="1" stop-color="#0ACE88"/>
</linearGradient>
<linearGradient id="paint1_linear_810_10925" x1="120.35" y1="58.0302" x2="-2.70381" y2="70.4633" gradientUnits="userSpaceOnUse">
<stop stop-color="#00C4B8"/>
<stop offset="1" stop-color="#0ACE88"/>
</linearGradient>
<linearGradient id="paint2_linear_810_10925" x1="24.9" y1="12.0063" x2="-0.559409" y2="14.5786" gradientUnits="userSpaceOnUse">
<stop stop-color="#00C4B8"/>
<stop offset="1" stop-color="#0ACE88"/>
</linearGradient>
<linearGradient id="paint3_linear_810_10925" x1="192.801" y1="138.385" x2="187.143" y2="138.956" gradientUnits="userSpaceOnUse">
<stop stop-color="#00C4B8"/>
<stop offset="1" stop-color="#0ACE88"/>
</linearGradient>
</defs>
</svg>
