<svg width="25" height="24" viewBox="0 0 25 24" fill="none" xmlns="http://www.w3.org/2000/svg">
<g clip-path="url(#clip0_803_1163)">
<path d="M18.864 5.63609L17.45 7.05009C16.3049 5.90489 14.7982 5.19215 13.1865 5.03333C11.5748 4.87451 9.95794 5.27942 8.61134 6.17908C7.26474 7.07874 6.27174 8.41748 5.80154 9.9672C5.33134 11.5169 5.41302 13.1817 6.03268 14.678C6.65234 16.1742 7.77162 17.4093 9.19983 18.1728C10.628 18.9363 12.2768 19.181 13.8652 18.8652C15.4536 18.5493 16.8833 17.6925 17.9108 16.4407C18.9382 15.1889 19.4999 13.6196 19.5 12.0001H21.5C21.5 14.0823 20.778 16.1001 19.457 17.7096C18.1361 19.3192 16.2979 20.4209 14.2557 20.8271C12.2136 21.2333 10.0937 20.9188 8.25737 19.9373C6.42104 18.9557 4.98187 17.3678 4.18506 15.4441C3.38825 13.5204 3.28311 11.3799 3.88756 9.38739C4.492 7.39486 5.76863 5.67355 7.49992 4.51675C9.23121 3.35996 11.31 2.83925 13.3822 3.04336C15.4544 3.24746 17.3917 4.16375 18.864 5.63609V5.63609Z" fill="#282D32"/>
<path d="M18.864 5.63609L17.45 7.05009C16.3049 5.90489 14.7982 5.19215 13.1865 5.03333C11.5748 4.87451 9.95794 5.27942 8.61134 6.17908C7.26474 7.07874 6.27174 8.41748 5.80154 9.9672C5.33134 11.5169 5.41302 13.1817 6.03268 14.678C6.65234 16.1742 7.77162 17.4093 9.19983 18.1728C10.628 18.9363 12.2768 19.181 13.8652 18.8652C15.4536 18.5493 16.8833 17.6925 17.9108 16.4407C18.9382 15.1889 19.4999 13.6196 19.5 12.0001H21.5C21.5 14.0823 20.778 16.1001 19.457 17.7096C18.1361 19.3192 16.2979 20.4209 14.2557 20.8271C12.2136 21.2333 10.0937 20.9188 8.25737 19.9373C6.42104 18.9557 4.98187 17.3678 4.18506 15.4441C3.38825 13.5204 3.28311 11.3799 3.88756 9.38739C4.492 7.39486 5.76863 5.67355 7.49992 4.51675C9.23121 3.35996 11.31 2.83925 13.3822 3.04336C15.4544 3.24746 17.3917 4.16375 18.864 5.63609V5.63609Z" fill="url(#paint0_linear_803_1163)"/>
</g>
<defs>
<linearGradient id="paint0_linear_803_1163" x1="21.5" y1="11.6792" x2="3.09561" y2="13.5388" gradientUnits="userSpaceOnUse">
<stop stop-color="#00C4B8"/>
<stop offset="1" stop-color="#0ACE88"/>
</linearGradient>
<clipPath id="clip0_803_1163">
<rect width="24" height="24" fill="white" transform="translate(0.5)"/>
</clipPath>
</defs>
</svg>
